# xmcd
#
# Track frame offsets:
#	150
#	18047
#	35814
#	48300
#	64734
#	76236
#	80156
#	91391
#	107385
#	124074
#	139123
#	156101
#
# Disc length: 2351 seconds
#
# Revision: 0
# Processed by: cddbd v1.5.2PL0 Copyright (c) Steve Scherf et al.
# Submitted via: EasyCDDAExtractor 2011.0.0.0
#
DISCID=92092d0c
DTITLE=Little Hurricane - Homewrecker
DYEAR=2011
DGENRE=Blues
TTITLE0=Trouble Ahead
TTITLE1=Crocodile Tears
TTITLE2=Haunted Heart
TTITLE3=Shortbread
TTITLE4=Get By
TTITLE5=Hold Me Back
TTITLE6=Sun Sets West
TTITLE7=Sweet Pea
TTITLE8=Tear Bucket
TTITLE9=Lies
TTITLE10=Homewrecker
TTITLE11=Give Em Hell
EXTD=
EXTT0=
EXTT1=
EXTT2=
EXTT3=
EXTT4=
EXTT5=
EXTT6=
EXTT7=
EXTT8=
EXTT9=
EXTT10=
EXTT11=
PLAYORDER=
